<?xml version="1.0" encoding="UTF-8"?>
<svg width="760" height="480" xmlns="http://www.w3.org/2000/svg">
  <!-- Solid Dark Background -->
  <rect width="100%" height="100%" fill="#070a14"/>
  
  <!-- Header Bar -->
  <rect x="0" y="0" width="100%" height="45" fill="#0f172a"/>
  <text x="20" y="30" fill="#facc15" font-size="20" font-weight="bold" font-family="Inter, 'Noto Sans TC', sans-serif">8996 高力 日K線指標分析</text>
  <text x="360" y="30" fill="#00e676" font-size="16" font-weight="bold" font-family="Inter, sans-serif">收盤: 1280 -5.00 (-0.39%)</text>
  <text x="670" y="30" fill="#ffffff" font-size="13" font-weight="bold" font-family="sans-serif">2026/08/14</text>
  
  <!-- Grid Axis Lines -->
  <line x1="75" y1="55" x2="575" y2="55" stroke="#334155" stroke-width="1.5" stroke-dasharray="4,4"/>
  <line x1="75" y1="175" x2="575" y2="175" stroke="#334155" stroke-width="1.5" stroke-dasharray="4,4"/>
  <line x1="75" y1="295" x2="575" y2="295" stroke="#64748b" stroke-width="2"/>
  
  <!-- Y-Axis Price Labels (Left & Center-Right Ticks) -->
  <rect x="5" y="43" width="65" height="22" rx="4" fill="#facc15"/>
  <text x="37" y="59" fill="#000000" font-size="13" font-weight="bold" font-family="sans-serif" text-anchor="middle">1330</text>
  
  <rect x="5" y="164" width="65" height="22" rx="4" fill="#1e293b" stroke="#64748b" stroke-width="1"/>
  <text x="37" y="179" fill="#ffffff" font-size="12" font-weight="bold" font-family="sans-serif" text-anchor="middle">1109.0</text>

  <rect x="5" y="285" width="65" height="22" rx="4" fill="#1e293b" stroke="#64748b" stroke-width="1"/>
  <text x="37" y="300" fill="#ffffff" font-size="12" font-weight="bold" font-family="sans-serif" text-anchor="middle">888</text>

  <!-- Volume Y-Axis Label -->
  <text x="10" y="445" fill="#38bdf8" font-size="12" font-weight="bold" font-family="sans-serif">成交量(張)</text>
  <text x="10" y="462" fill="#fef08a" font-size="12" font-weight="bold" font-family="sans-serif">最高:881,6</text>
  <line x1="100" y1="266.764705882353" x2="100" y2="295" stroke="#ff334b" stroke-width="2"/>
  <rect x="81" y="266.764705882353" width="38" height="27.6923076923077" fill="#ff334b" rx="1"/>
  <rect x="81" y="420.927601809955" width="38" height="14.0723981900452" fill="#ff334b" opacity="0.75"/>
  <line x1="100" y1="435" x2="100" y2="440" stroke="#ffffff" stroke-width="1.5"/>
  <text x="100" y="455" fill="#ffffff" font-size="12" font-weight="bold" font-family="Inter, sans-serif" text-anchor="middle">08/03</text>
  <line x1="150" y1="217.89592760181" x2="150" y2="239.615384615385" stroke="#ff334b" stroke-width="2"/>
  <rect x="131" y="217.89592760181" width="38" height="16.289592760181" fill="#ff334b" rx="1"/>
  <rect x="131" y="395.984162895928" width="38" height="39.0158371040724" fill="#ff334b" opacity="0.75"/>
  <line x1="200" y1="188.031674208145" x2="200" y2="217.89592760181" stroke="#00e676" stroke-width="2"/>
  <rect x="181" y="207.036199095023" width="38" height="8.1447963800905" fill="#00e676" rx="1"/>
  <rect x="181" y="365.373303167421" width="38" height="69.6266968325792" fill="#00e676" opacity="0.75"/>
  <line x1="250" y1="160.882352941176" x2="250" y2="212.466063348416" stroke="#ff334b" stroke-width="2"/>
  <rect x="231" y="160.882352941176" width="38" height="43.4389140271493" fill="#ff334b" rx="1"/>
  <rect x="231" y="385.622171945701" width="38" height="49.3778280542986" fill="#ff334b" opacity="0.75"/>
  <line x1="250" y1="435" x2="250" y2="440" stroke="#ffffff" stroke-width="1.5"/>
  <text x="250" y="455" fill="#ffffff" font-size="12" font-weight="bold" font-family="Inter, sans-serif" text-anchor="middle">08/06</text>
  <line x1="300" y1="160.882352941176" x2="300" y2="212.466063348416" stroke="#00e676" stroke-width="2"/>
  <rect x="281" y="190.746606334842" width="38" height="19.0045248868778" fill="#00e676" rx="1"/>
  <rect x="281" y="383.190045248869" width="38" height="51.8099547511312" fill="#00e676" opacity="0.75"/>
  <line x1="350" y1="174.457013574661" x2="350" y2="201.606334841629" stroke="#ff334b" stroke-width="2"/>
  <rect x="331" y="193.461538461538" width="38" height="5.42986425339367" fill="#ff334b" rx="1"/>
  <rect x="331" y="410.373303167421" width="38" height="24.6266968325792" fill="#ff334b" opacity="0.75"/>
  <line x1="400" y1="190.746606334842" x2="400" y2="209.751131221719" stroke="#ff334b" stroke-width="2"/>
  <rect x="381" y="198.891402714932" width="38" height="2.71493212669685" fill="#ff334b" rx="1"/>
  <rect x="381" y="421.957013574661" width="38" height="13.0429864253394" fill="#ff334b" opacity="0.75"/>
  <line x1="400" y1="435" x2="400" y2="440" stroke="#ffffff" stroke-width="1.5"/>
  <text x="400" y="455" fill="#ffffff" font-size="12" font-weight="bold" font-family="Inter, sans-serif" text-anchor="middle">08/11</text>
  <line x1="450" y1="141.877828054299" x2="450" y2="198.891402714932" stroke="#ff334b" stroke-width="2"/>
  <rect x="431" y="141.877828054299" width="38" height="54.2986425339367" fill="#ff334b" rx="1"/>
  <rect x="431" y="403.529411764706" width="38" height="31.4705882352941" fill="#ff334b" opacity="0.75"/>
  <line x1="500" y1="79.4343891402715" x2="500" y2="128.303167420814" stroke="#ff334b" stroke-width="2"/>
  <rect x="481" y="79.4343891402715" width="38" height="27.1493212669683" fill="#ff334b" rx="1"/>
  <rect x="481" y="390.599547511312" width="38" height="44.4004524886878" fill="#ff334b" opacity="0.75"/>
  <line x1="550" y1="55" x2="550" y2="101.153846153846" stroke="#00e676" stroke-width="2"/>
  <rect x="531" y="57.7149321266968" width="38" height="24.4343891402715" fill="#00e676" rx="1"/>
  <rect x="531" y="365" width="38" height="70" fill="#00e676" opacity="0.75"/>
  <line x1="550" y1="435" x2="550" y2="440" stroke="#ffffff" stroke-width="1.5"/>
  <text x="550" y="455" fill="#ffffff" font-size="12" font-weight="bold" font-family="Inter, sans-serif" text-anchor="middle">08/14</text>
  <polyline points="300,214.095022624434 350,199.434389140271 400,195.633484162896 450,180.972850678733 500,164.683257918552 550,139.162895927602" fill="none" stroke="#facc15" stroke-width="3"/>
  <polyline points="550,176.628959276018" fill="none" stroke="#38bdf8" stroke-width="2.5" stroke-dasharray="4,2"/>

  <!-- 觀察指標高反差面板 -->
  <rect x="585" y="55" width="168" height="360" rx="8" fill="#0f172a" stroke="#334155" stroke-width="2"/>
  
  <rect x="590" y="61" width="158" height="26" rx="4" fill="#1e293b"/>
  <text x="669" y="79" fill="#facc15" font-size="13" font-weight="bold" font-family="sans-serif" text-anchor="middle">🎯 6 大觀察指標評估</text>
  
  <!-- 指標 1: 均線多頭 -->
  <text x="595" y="110" fill="#94a3b8" font-size="11" font-weight="bold" font-family="sans-serif">1. 均線排列:</text>
  <text x="595" y="127" fill="#10b981" font-size="12" font-weight="bold" font-family="sans-serif">✓ 5MA > 20MA 多頭</text>
  
  <!-- 指標 2: 20MA 斜率 -->
  <text x="595" y="153" fill="#94a3b8" font-size="11" font-weight="bold" font-family="sans-serif">2. 20MA 均線趨勢:</text>
  <text x="595" y="170" fill="#38bdf8" font-size="12" font-weight="bold" font-family="sans-serif">▲ 強勢持續向上</text>
  
  <!-- 指標 3: RSI(14) -->
  <text x="595" y="196" fill="#94a3b8" font-size="11" font-weight="bold" font-family="sans-serif">3. RSI(14) 強弱度:</text>
  <rect x="595" y="203" width="120" height="20" rx="4" fill="#38bdf8"/>
  <text x="655" y="218" fill="#000000" font-size="12" font-weight="bold" font-family="sans-serif" text-anchor="middle">RSI: 59.1</text>

  <!-- 指標 4: 近 5 日動能 -->
  <text x="595" y="244" fill="#94a3b8" font-size="11" font-weight="bold" font-family="sans-serif">4. 近 5 日累計動能:</text>
  <text x="595" y="261" fill="#ff334b" font-size="13" font-weight="bold" font-family="sans-serif">+22.49%</text>

  <!-- 指標 5: 爆量攻擊 -->
  <text x="595" y="287" fill="#94a3b8" font-size="11" font-weight="bold" font-family="sans-serif">5. 成交量爆量倍數:</text>
  <text x="595" y="304" fill="#facc15" font-size="13" font-weight="bold" font-family="sans-serif">🔥 2.1倍 均量</text>

  <!-- 指標 6: 創 20 日新高 -->
  <text x="595" y="330" fill="#94a3b8" font-size="11" font-weight="bold" font-family="sans-serif">6. 20 日價格新高:</text>
  <rect x="595" y="337" width="145" height="22" rx="4" fill="#facc15"/>
  <text x="667" y="353" fill="#000000" font-size="12" font-weight="bold" font-family="sans-serif" text-anchor="middle">未破新高</text>
  
  <!-- 綜合評分 -->
  <rect x="595" y="373" width="148" height="30" rx="6" fill="#10b981"/>
  <text x="669" y="393" fill="#ffffff" font-size="14" font-weight="bold" font-family="sans-serif" text-anchor="middle">⭐ 評分: 5 / 6 分</text>

  <line x1="20" y1="468" x2="45" y2="468" stroke="#facc15" stroke-width="3"/>
  <text x="50" y="472" fill="#facc15" font-size="12" font-weight="bold" font-family="sans-serif">5MA (5日均線)</text>

  <line x1="165" y1="468" x2="190" y2="468" stroke="#38bdf8" stroke-width="2.5" stroke-dasharray="4,2"/>
  <text x="195" y="472" fill="#38bdf8" font-size="12" font-weight="bold" font-family="sans-serif">20MA (20日均線)</text>
</svg>