<?xml version="1.0" encoding="UTF-8"?>
<svg width="720" height="440" xmlns="http://www.w3.org/2000/svg">
  <!-- Solid Dark Background -->
  <rect width="100%" height="100%" fill="#070a14"/>
  
  <!-- Header Bar -->
  <rect x="0" y="0" width="100%" height="45" fill="#0f172a"/>
  <text x="20" y="30" fill="#facc15" font-size="20" font-weight="bold" font-family="Inter, 'Noto Sans TC', sans-serif">8046 南電 日K線技術分析</text>
  <text x="360" y="30" fill="#ff334b" font-size="17" font-weight="bold" font-family="Inter, sans-serif">最新價: 1305 +90.00 (+7.41%)</text>
  <text x="630" y="30" fill="#ffffff" font-size="13" font-weight="bold" font-family="sans-serif">2026/08/14</text>
  
  <!-- Grid Axis Lines (High Contrast) -->
  <!-- Top Price Grid Line -->
  <line x1="75" y1="55" x2="645" y2="55" stroke="#334155" stroke-width="1.5" stroke-dasharray="4,4"/>
  <!-- Mid Price Grid Line -->
  <line x1="75" y1="175" x2="645" y2="175" stroke="#334155" stroke-width="1.5" stroke-dasharray="4,4"/>
  <!-- Bottom Price Grid Line (Chart Sep) -->
  <line x1="75" y1="295" x2="645" y2="295" stroke="#64748b" stroke-width="2"/>
  
  <!-- Y-Axis Price Ticks Labels (Ultra High Contrast Yellow/White on Left & Right) -->
  <!-- Left Top Max Price -->
  <rect x="5" y="43" width="65" height="22" rx="4" fill="#facc15"/>
  <text x="37" y="59" fill="#000000" font-size="13" font-weight="bold" font-family="sans-serif" text-anchor="middle">1335</text>
  
  <!-- Left Mid Price -->
  <rect x="5" y="164" width="65" height="22" rx="4" fill="#1e293b" stroke="#64748b" stroke-width="1"/>
  <text x="37" y="179" fill="#ffffff" font-size="12" font-weight="bold" font-family="sans-serif" text-anchor="middle">1137.5</text>

  <!-- Left Bottom Min Price -->
  <rect x="5" y="285" width="65" height="22" rx="4" fill="#1e293b" stroke="#64748b" stroke-width="1"/>
  <text x="37" y="300" fill="#ffffff" font-size="12" font-weight="bold" font-family="sans-serif" text-anchor="middle">940</text>

  <!-- Right Y-Axis Price Labels -->
  <rect x="650" y="43" width="65" height="22" rx="4" fill="#facc15"/>
  <text x="682" y="59" fill="#000000" font-size="13" font-weight="bold" font-family="sans-serif" text-anchor="middle">1335</text>
  
  <rect x="650" y="285" width="65" height="22" rx="4" fill="#1e293b" stroke="#64748b" stroke-width="1"/>
  <text x="682" y="300" fill="#ffffff" font-size="12" font-weight="bold" font-family="sans-serif" text-anchor="middle">940</text>

  <!-- Volume Y-Axis Label (Bottom Left) -->
  <text x="10" y="405" fill="#38bdf8" font-size="12" font-weight="bold" font-family="sans-serif">成交量(張)</text>
  <text x="10" y="422" fill="#fef08a" font-size="12" font-weight="bold" font-family="sans-serif">最大:913,32</text>
  <line x1="103.5" y1="259.759493670886" x2="103.5" y2="295" stroke="#ff334b" stroke-width="2"/>
  <rect x="81.84" y="287.101265822785" width="43.32" height="4.86075949367086" fill="#ff334b" rx="1"/>
  <rect x="81.84" y="376.619709249968" width="43.32" height="18.3802907500322" fill="#ff334b" opacity="0.75"/>
  <line x1="103.5" y1="395" x2="103.5" y2="400" stroke="#ffffff" stroke-width="1.5"/>
  <text x="103.5" y="415" fill="#ffffff" font-size="12" font-weight="bold" font-family="Inter, sans-serif" text-anchor="middle">08/03</text>
  <line x1="160.5" y1="231.20253164557" x2="160.5" y2="271.911392405063" stroke="#ff334b" stroke-width="2"/>
  <rect x="138.84" y="231.20253164557" width="43.32" height="15.1898734177215" fill="#ff334b" rx="1"/>
  <rect x="138.84" y="378.465843303744" width="43.32" height="16.5341566962563" fill="#ff334b" opacity="0.75"/>
  <line x1="217.5" y1="170.443037974684" x2="217.5" y2="225.126582278481" stroke="#00e676" stroke-width="2"/>
  <rect x="195.84" y="173.481012658228" width="43.32" height="48.6075949367089" fill="#00e676" rx="1"/>
  <rect x="195.84" y="378.669968695056" width="43.32" height="16.3300313049445" fill="#00e676" opacity="0.75"/>
  <line x1="274.5" y1="179.556962025316" x2="274.5" y2="249.430379746835" stroke="#ff334b" stroke-width="2"/>
  <rect x="252.84" y="194.746835443038" width="43.32" height="27.3417721518987" fill="#ff334b" rx="1"/>
  <rect x="252.84" y="383.79411638578" width="43.32" height="11.2058836142202" fill="#ff334b" opacity="0.75"/>
  <line x1="274.5" y1="395" x2="274.5" y2="400" stroke="#ffffff" stroke-width="1.5"/>
  <text x="274.5" y="415" fill="#ffffff" font-size="12" font-weight="bold" font-family="Inter, sans-serif" text-anchor="middle">08/06</text>
  <line x1="331.5" y1="182.594936708861" x2="331.5" y2="228.164556962025" stroke="#00e676" stroke-width="2"/>
  <rect x="309.84" y="182.594936708861" width="43.32" height="27.3417721518987" fill="#00e676" rx="1"/>
  <rect x="309.84" y="382.78549680518" width="43.32" height="12.2145031948197" fill="#00e676" opacity="0.75"/>
  <line x1="388.5" y1="149.177215189873" x2="388.5" y2="209.936708860759" stroke="#ff334b" stroke-width="2"/>
  <rect x="366.84" y="179.556962025316" width="43.32" height="18.2278481012658" fill="#ff334b" rx="1"/>
  <rect x="366.84" y="384.868776534157" width="43.32" height="10.1312234658433" fill="#ff334b" opacity="0.75"/>
  <line x1="445.5" y1="161.329113924051" x2="445.5" y2="197.784810126582" stroke="#ff334b" stroke-width="2"/>
  <rect x="423.84" y="167.405063291139" width="43.32" height="21.2658227848101" fill="#ff334b" rx="1"/>
  <rect x="423.84" y="387.264248038081" width="43.32" height="7.73575196191946" fill="#ff334b" opacity="0.75"/>
  <line x1="445.5" y1="395" x2="445.5" y2="400" stroke="#ffffff" stroke-width="1.5"/>
  <text x="445.5" y="415" fill="#ffffff" font-size="12" font-weight="bold" font-family="Inter, sans-serif" text-anchor="middle">08/11</text>
  <line x1="502.5" y1="97.5316455696203" x2="502.5" y2="179.556962025316" stroke="#ff334b" stroke-width="2"/>
  <rect x="480.84" y="97.5316455696203" width="43.32" height="57.7215189873418" fill="#ff334b" rx="1"/>
  <rect x="480.84" y="356.078090827222" width="43.32" height="38.9219091727776" fill="#ff334b" opacity="0.75"/>
  <line x1="559.5" y1="76.2658227848101" x2="559.5" y2="127.911392405063" stroke="#00e676" stroke-width="2"/>
  <rect x="537.84" y="79.3037974683544" width="43.32" height="48.6075949367089" fill="#00e676" rx="1"/>
  <rect x="537.84" y="337.96496419229" width="43.32" height="57.0350358077105" fill="#00e676" opacity="0.75"/>
  <line x1="616.5" y1="55" x2="616.5" y2="133.987341772152" stroke="#ff334b" stroke-width="2"/>
  <rect x="594.84" y="73.2278481012658" width="43.32" height="42.5316455696203" fill="#ff334b" rx="1"/>
  <rect x="594.84" y="325" width="43.32" height="70" fill="#ff334b" opacity="0.75"/>
  <line x1="616.5" y1="395" x2="616.5" y2="400" stroke="#ffffff" stroke-width="1.5"/>
  <text x="616.5" y="415" fill="#ffffff" font-size="12" font-weight="bold" font-family="Inter, sans-serif" text-anchor="middle">08/14</text>
  <polyline points="331.5,229.015189873418 388.5,207.506329113924 445.5,194.746835443038 502.5,169.835443037975 559.5,156.46835443038 616.5,129.126582278481" fill="none" stroke="#facc15" stroke-width="3"/>
  <polyline points="616.5,179.070886075949" fill="none" stroke="#38bdf8" stroke-width="2.5" stroke-dasharray="4,2"/>

  <!-- Legend Group -->
  <line x1="430" y1="428" x2="455" y2="428" stroke="#facc15" stroke-width="3"/>
  <text x="460" y="432" fill="#facc15" font-size="12" font-weight="bold" font-family="sans-serif">5MA (5日均線)</text>

  <line x1="565" y1="428" x2="590" y2="428" stroke="#38bdf8" stroke-width="2.5" stroke-dasharray="4,2"/>
  <text x="595" y="432" fill="#38bdf8" font-size="12" font-weight="bold" font-family="sans-serif">20MA (20日均線)</text>
</svg>